<?xml version="1.0" standalone="no"?>
<!DOCTYPE svg PUBLIC "-//W3C//DTD SVG 20010904//EN"
 "http://www.w3.org/TR/2001/REC-SVG-20010904/DTD/svg10.dtd">
<svg version="1.0" xmlns="http://www.w3.org/2000/svg"
 width="866.000000pt" height="650.000000pt" viewBox="0 0 866.000000 650.000000"
 preserveAspectRatio="xMidYMid meet">

<g transform="translate(0.000000,650.000000) scale(0.100000,-0.100000)"
fill="#000000" stroke="none">
<path d="M1027 4163 c-4 -3 -7 -244 -7 -534 l0 -528 83 -49 c151 -90 178 -104
193 -98 12 5 14 61 14 356 0 234 3 350 10 350 11 0 87 -42 279 -154 85 -50
124 -67 152 -68 41 0 42 0 271 135 81 48 152 87 158 87 6 0 10 -67 10 -185 l0
-184 -29 -22 c-17 -12 -108 -70 -203 -128 l-173 -107 -3 -181 -2 -180 180
-114 c99 -63 215 -136 258 -164 104 -67 129 -66 242 1 47 28 196 117 331 197
177 105 249 153 257 172 9 18 12 125 12 366 0 289 -2 340 -15 345 -8 3 -65
-26 -131 -67 -91 -57 -120 -80 -130 -106 -10 -23 -14 -82 -14 -207 l0 -174
-157 -93 c-289 -172 -269 -168 -430 -72 -62 37 -115 74 -118 82 -8 21 2 29
206 164 109 73 189 132 196 147 10 19 13 147 13 516 0 434 -2 493 -15 498 -10
3 -134 -64 -320 -174 -362 -213 -356 -210 -393 -210 -16 0 -73 26 -138 63 -60
35 -211 123 -336 195 -125 73 -231 132 -236 132 -5 0 -12 -3 -15 -7z"/>
<path d="M2925 4080 c-146 -86 -145 -83 -145 -245 0 -84 4 -136 11 -140 13 -9
194 99 237 141 l33 33 -3 133 c-3 109 -6 133 -18 135 -8 1 -60 -25 -115 -57z"/>
<path d="M3970 3405 l0 -536 143 3 142 3 0 293 c-1 160 0 292 1 292 0 0 61
-79 135 -175 l134 -176 50 3 50 3 130 167 c72 91 133 169 136 172 3 3 5 -126
5 -287 l-1 -292 143 -3 142 -3 0 536 0 535 -130 0 -129 0 -169 -232 c-93 -128
-172 -233 -177 -233 -4 0 -83 104 -174 232 l-166 232 -132 0 -133 1 0 -535z"/>
<path d="M5480 3621 c0 -175 4 -343 10 -372 33 -177 168 -315 356 -364 77 -20
252 -20 329 0 189 50 328 201 355 390 5 39 10 204 10 368 l0 297 -150 0 -150
0 0 -311 c0 -352 -3 -372 -65 -434 -102 -102 -286 -82 -355 39 l-30 51 0 328
0 327 -155 0 -155 0 0 -319z"/>
<path d="M6850 3815 l0 -125 125 0 125 0 0 -280 0 -280 -125 0 -126 0 3 -127
3 -128 393 -3 392 -2 0 130 0 130 -120 0 -120 0 0 280 0 280 120 0 120 0 0
125 0 125 -395 0 -395 0 0 -125z"/>
</g>
</svg>
