<svg width="20" height="20" viewBox="0 0 20 20" fill="none" xmlns="http://www.w3.org/2000/svg">
<path d="M16.6061 0C16.1612 0.00121299 15.7209 0.0904421 15.3106 0.262547C14.9004 0.434653 14.5282 0.686233 14.2156 1.0028L1.20759 14.0104L1.15659 14.2679L0.256655 18.7924L0 20L1.20842 19.7433L5.73278 18.8434L5.98944 18.7915L18.9974 5.78397C19.3149 5.47197 19.5671 5.09985 19.7392 4.68933C19.9113 4.27881 20 3.83812 20 3.39297C20 2.94783 19.9113 2.50714 19.7392 2.09662C19.5671 1.6861 19.3149 1.31398 18.9974 1.00197C18.6846 0.685461 18.3123 0.433975 17.9019 0.26201C17.4914 0.0900437 17.0511 0.000996917 16.6061 0ZM16.6061 1.56795C17.0207 1.56795 17.4386 1.75716 17.84 2.15943C18.6404 2.95903 18.6404 3.82692 17.84 4.62734L17.2494 5.1925L14.8062 2.75008L15.3722 2.15943C15.7744 1.75716 16.1915 1.56795 16.6061 1.56795ZM13.6504 3.90754L16.0919 6.34995L6.14409 16.2973C5.60764 15.2461 4.75248 14.3915 3.70093 13.8557L13.6504 3.90754ZM2.64799 15.1933C3.13494 15.389 3.57727 15.6812 3.94836 16.0523C4.31946 16.4234 4.61164 16.8658 4.80734 17.3527L2.10753 17.8924L2.64799 15.1933Z" fill="#999999"/>
</svg>
