<svg width="22" height="18" viewBox="0 0 22 18" fill="none" xmlns="http://www.w3.org/2000/svg">
<path d="M10 15.05V5.2C9.31667 4.8 8.59167 4.5 7.825 4.3C7.05833 4.1 6.28333 4 5.5 4C4.9 4 4.304 4.05833 3.712 4.175C3.12 4.29167 2.54933 4.46667 2 4.7V14.6C2.58333 14.4 3.16267 14.25 3.738 14.15C4.31333 14.05 4.90067 14 5.5 14C6.28333 14 7.046 14.0877 7.788 14.263C8.53 14.4383 9.26733 14.7007 10 15.05ZM11 18C10.2 17.3667 9.33333 16.875 8.4 16.525C7.46667 16.175 6.5 16 5.5 16C4.8 16 4.11267 16.0917 3.438 16.275C2.76333 16.4583 2.11733 16.7167 1.5 17.05C1.15 17.2333 0.812667 17.225 0.488 17.025C0.163333 16.825 0.000666667 16.5333 0 16.15V4.1C0 3.91667 0.046 3.74167 0.138 3.575C0.23 3.40833 0.367333 3.28333 0.55 3.2C1.31667 2.8 2.11667 2.5 2.95 2.3C3.78333 2.1 4.63333 2 5.5 2C6.73333 2 7.78333 2.14167 8.65 2.425C9.51667 2.70833 10.45 3.14167 11.45 3.725C11.6333 3.825 11.771 3.94167 11.863 4.075C11.955 4.20833 12.0007 4.38333 12 4.6V15.05C12.7333 14.7 13.471 14.4373 14.213 14.262C14.955 14.0867 15.7173 13.9993 16.5 14C17.1 14 17.6877 14.05 18.263 14.15C18.8383 14.25 19.4173 14.4 20 14.6V2.575C20.25 2.65833 20.496 2.75 20.738 2.85C20.98 2.95 21.2173 3.06667 21.45 3.2C21.6333 3.28333 21.771 3.40833 21.863 3.575C21.955 3.74167 22.0007 3.91667 22 4.1V16.15C22 16.5333 21.8373 16.825 21.512 17.025C21.1867 17.225 20.8493 17.2333 20.5 17.05C19.8833 16.7167 19.2377 16.4583 18.563 16.275C17.8883 16.0917 17.2007 16 16.5 16C15.5 16 14.5333 16.175 13.6 16.525C12.6667 16.875 11.8 17.3667 11 18ZM14.5 12V1L17.5 0V11L14.5 12Z" fill="#999999"/>
</svg>
