<svg width="162" height="57" viewBox="0 0 162 57" fill="none" xmlns="http://www.w3.org/2000/svg">
<path d="M10.6279 7.39384C7.81041 5.95722 2.25633 8.73293 0.661031 11.178C-0.0507159 12.2722 0.000824857 13.0618 0.000824857 13.509V37.4415L20.828 50L24.7451 47.9283V24.6213L3.36076 12.7241C4.50938 11.3255 7.08884 9.61774 9.02529 10.3027L28.0731 20.1759V46.1421L32 44.0656V18.0995L10.6279 7.39384Z" fill="#2E8B57"/>
<path d="M51.25 17.2188C51.25 21.9531 54.25 26.5469 59.5938 28.4688L57.4844 31.8438C53.5234 30.2969 50.7578 27.4141 49.2344 23.875C47.7812 27.7422 44.9688 30.9062 40.8906 32.5469L38.7812 29.2656C44.0781 27.1094 47.0312 22.2812 47.0312 17.2188V16.8438H39.7188V13.2812H47.0312V8.45312H51.25V13.2812H58.4688V16.8438H51.25V17.2188ZM74.3594 8.03125V33.7188H70.1406V22.6562H65.3594V33.5312H61.0938V8.73438H65.3594V19H70.1406V8.03125H74.3594ZM74.3594 35.8281V49.9844H69.9531V39.4375H45.8125V35.8281H74.3594ZM114.812 7.98438V50.0781H110.359V7.98438H114.812ZM92.3594 11.125C98.5938 11.125 103.188 16.8438 103.188 25.8438C103.188 34.8906 98.5938 40.6094 92.3594 40.6094C86.0312 40.6094 81.4844 34.8906 81.4844 25.8438C81.4844 16.8438 86.0312 11.125 92.3594 11.125ZM92.3594 15.1094C88.4688 15.1094 85.7969 19.2344 85.7969 25.8438C85.7969 32.5 88.4688 36.625 92.3594 36.625C96.2031 36.625 98.875 32.5 98.875 25.8438C98.875 19.2344 96.2031 15.1094 92.3594 15.1094ZM140.641 8.875C149.875 8.875 155.641 11.875 155.641 16.9375C155.641 21.9062 149.875 24.8594 140.641 24.8594C131.453 24.8594 125.641 21.9062 125.641 16.9375C125.641 11.875 131.453 8.875 140.641 8.875ZM140.641 12.3906C134.172 12.3906 130.188 14.0312 130.234 16.9375C130.188 19.75 134.172 21.3438 140.641 21.3906C147.062 21.3438 151.047 19.75 151.047 16.9375C151.047 14.0312 147.062 12.3906 140.641 12.3906ZM155.125 35.4531V49.4688H126.109V35.4531H155.125ZM130.516 39.0156V45.8594H150.812V39.0156H130.516ZM159.812 28.0938V31.7031H121.516V28.0938H159.812Z" fill="#2E8B57"/>
</svg>
