<svg width="93" height="26" viewBox="0 0 93 26" fill="none" xmlns="http://www.w3.org/2000/svg">
<path d="M24.3408 24.1119C23.5931 24.1119 23.0536 24.0036 22.7222 23.7871C22.3894 23.5705 22.1869 23.2766 22.1147 22.9053C22.041 22.534 22.0056 22.1529 22.0056 21.7619V4.84905C22.0056 4.45808 22.041 4.08118 22.1147 3.72115C22.1869 3.36112 22.3894 3.06719 22.7222 2.83936C23.0536 2.61294 23.6044 2.49902 24.372 2.49902C25.1608 2.49902 25.7159 2.61294 26.0374 2.83936C26.3588 3.06579 26.5557 3.35971 26.6293 3.72115C26.7015 4.08258 26.7383 4.46792 26.7383 4.87999V21.7928C26.7383 22.1852 26.6973 22.5607 26.6137 22.9207C26.5302 23.2822 26.3277 23.5705 26.0062 23.7871C25.6847 24.0036 25.1296 24.1119 24.3408 24.1119Z" fill="white"/>
<path d="M31.9058 24.1119C31.1581 24.1119 30.6186 24.0036 30.2872 23.7871C29.9544 23.5705 29.7519 23.2766 29.6797 22.9053C29.6074 22.534 29.5706 22.1529 29.5706 21.7619V4.84905C29.5706 3.96304 29.7462 3.34987 30.1003 3.00953C30.4529 2.66919 31.0859 2.49902 31.9993 2.49902H43.7674C44.1823 2.49902 44.5661 2.53559 44.9187 2.60731C45.2713 2.68044 45.5616 2.88015 45.791 3.21064C46.019 3.54113 46.1337 4.09665 46.1337 4.87999C46.1337 5.62254 46.019 6.15837 45.791 6.48745C45.563 6.81795 45.2671 7.01906 44.9031 7.09078C44.5392 7.16251 44.1512 7.19907 43.7362 7.19907H34.3033V11.1875H40.717C41.1319 11.1875 41.5001 11.2184 41.8216 11.2803C42.1431 11.3422 42.398 11.518 42.5849 11.8063C42.7718 12.0946 42.8653 12.5798 42.8653 13.2591C42.8653 13.8976 42.7718 14.3617 42.5849 14.65C42.398 14.9383 42.1332 15.1141 41.7904 15.1759C41.4477 15.2378 41.0696 15.2688 40.6533 15.2688H34.3019V19.4119H43.766C44.1809 19.4119 44.5647 19.4527 44.9173 19.5356C45.2699 19.6186 45.5602 19.8197 45.7896 20.139C46.0176 20.4582 46.1323 21.0095 46.1323 21.7928C46.1323 22.5354 46.0176 23.0712 45.7896 23.4003C45.5616 23.7308 45.2656 23.9305 44.9017 24.0036C44.5378 24.0754 44.1497 24.1119 43.7348 24.1119H31.9058Z" fill="white"/>
<path d="M57.6214 24.3904C56.1062 24.3904 54.7679 24.0965 53.6053 23.5087C52.4426 22.9208 51.4669 22.1375 50.6781 21.1586C49.8893 20.1798 49.2974 19.0772 48.9037 17.8509C48.5086 16.6245 48.3118 15.3729 48.3118 14.0945V4.8491C48.3118 4.43704 48.3472 4.05029 48.4208 3.69026C48.493 3.33024 48.6955 3.03631 49.0283 2.80848C49.3597 2.58205 49.9106 2.46814 50.6781 2.46814C51.4669 2.46814 52.0277 2.58205 52.3591 2.80848C52.6905 3.0349 52.893 3.32883 52.9666 3.69026C53.0388 4.0517 53.0756 4.44829 53.0756 4.88004V14.0945C53.0756 15.0016 53.2258 15.8778 53.5274 16.723C53.8276 17.5682 54.3218 18.2686 55.0058 18.8255C55.6912 19.3824 56.5933 19.6609 57.7149 19.6609C58.6694 19.6609 59.4893 19.4288 60.1747 18.9647C60.8601 18.5006 61.3884 17.8509 61.7622 17.0169C62.1361 16.1815 62.323 15.1985 62.323 14.0636V4.6944C62.323 4.30344 62.3641 3.942 62.4476 3.61291C62.5298 3.28383 62.7379 3.00959 63.0707 2.79301C63.4021 2.57643 63.9431 2.46814 64.6894 2.46814C65.4782 2.46814 66.0333 2.58768 66.3548 2.82395C66.6762 3.06162 66.8731 3.35977 66.9467 3.7212C67.0189 4.08264 67.0557 4.46798 67.0557 4.88004V14.1564C67.0557 15.4544 66.8532 16.7131 66.4482 17.9282C66.0432 19.1447 65.4357 20.2375 64.6271 21.205C63.817 22.174 62.8314 22.9475 61.6688 23.5241C60.5061 24.1021 59.1579 24.3904 57.6214 24.3904Z" fill="white"/>
<path d="M72.0363 24.112C71.2885 24.112 70.749 23.9981 70.4176 23.7717C70.0848 23.5452 69.8823 23.2513 69.8101 22.8899C69.7379 22.5298 69.701 22.1431 69.701 21.7296V4.84911C69.701 4.45815 69.7365 4.08687 69.8101 3.73668C69.8823 3.3865 70.0848 3.0982 70.4176 2.87037C70.749 2.64394 71.3098 2.53003 72.0986 2.53003C72.6169 2.53003 73.012 2.56097 73.281 2.62285C73.5501 2.68473 73.7484 2.77192 73.873 2.88584C73.9976 2.99975 74.1321 3.12773 74.278 3.27259L81.2836 12.6713H80.8163L87.8531 3.27259C88.0188 3.08695 88.1845 2.9435 88.3516 2.83943C88.5172 2.73676 88.7297 2.65941 88.9902 2.60738C89.2494 2.55675 89.6176 2.53003 90.0948 2.53003C90.8425 2.53003 91.3821 2.64394 91.7135 2.87037C92.0448 3.09679 92.253 3.39072 92.3366 3.75215C92.4187 4.11359 92.4612 4.49893 92.4612 4.91099V21.7929C92.4612 22.1853 92.4201 22.5552 92.3366 22.9053C92.253 23.2555 92.0463 23.5438 91.7135 23.7717C91.3807 23.9981 90.8312 24.112 90.0637 24.112C89.3159 24.112 88.7764 23.9981 88.445 23.7717C88.1122 23.5452 87.9055 23.2457 87.8219 22.8744C87.7384 22.5031 87.6973 22.122 87.6973 21.731V10.7235L83.058 17.2476C82.9745 17.3305 82.8612 17.4585 82.7153 17.6343C82.5695 17.8101 82.367 17.9648 82.1078 18.0984C81.8487 18.2334 81.4904 18.2995 81.0344 18.2995C80.5982 18.2995 80.2456 18.2334 79.9751 18.0984C79.7046 17.9648 79.5035 17.8157 79.3676 17.6498C79.2316 17.4852 79.1127 17.3404 79.0093 17.2166L74.4026 10.7249V21.7943C74.4026 22.1867 74.3616 22.5566 74.278 22.9067C74.1944 23.2569 73.9919 23.5452 73.6705 23.7731C73.349 23.9981 72.8038 24.112 72.0363 24.112Z" fill="white"/>
<path d="M6.13234 0.520342C4.50662 -0.329098 1.3019 1.31212 0.381416 2.75786C-0.0292631 3.40478 0.000475944 3.87169 0.000475944 4.13609V18.2869L12.0178 25.7124L14.278 24.4875V10.7066L1.93917 3.67199C2.60192 2.84505 4.09027 1.83529 5.20761 2.24032L16.1982 8.07811V23.4313L18.4641 22.2036V6.85036L6.13234 0.520342Z" fill="white"/>
</svg>
