<svg width="45" height="42" viewBox="0 0 45 42" fill="none" xmlns="http://www.w3.org/2000/svg">
<path d="M22.3733 33.6906C22.4687 33.633 22.588 33.633 22.6834 33.6906L35.5169 41.4364C35.7441 41.5735 36.0243 41.3698 35.9641 41.1114L32.5584 26.5127C32.5331 26.4043 32.5699 26.2907 32.6541 26.2178L43.9929 16.395C44.1935 16.2212 44.0863 15.8918 43.8218 15.8693L28.8912 14.6026C28.7803 14.5932 28.6837 14.5232 28.6403 14.4207L22.8046 0.651712C22.7012 0.407803 22.3555 0.407802 22.2521 0.651711L16.4164 14.4207C16.373 14.5232 16.2764 14.5932 16.1655 14.6026L1.23486 15.8693C0.970429 15.8918 0.863206 16.2212 1.06379 16.395L12.4026 26.2178C12.4868 26.2907 12.5236 26.4043 12.4983 26.5127L9.09265 41.1114C9.03236 41.3698 9.31263 41.5735 9.53982 41.4364L22.3733 33.6906Z" fill="#EAEAEA"/>
</svg>
