<svg width="12" height="12" viewBox="0 0 12 12" fill="none" xmlns="http://www.w3.org/2000/svg">
<path d="M5.84498 9.25556C5.94032 9.19802 6.05968 9.19802 6.15502 9.25556L9.0993 11.0326C9.3265 11.1697 9.60676 10.966 9.54648 10.7076L8.76514 7.35834C8.73984 7.24989 8.77669 7.13635 8.86086 7.06344L11.4626 4.80957C11.6632 4.6358 11.5559 4.30633 11.2915 4.28389L7.86626 3.99329C7.75539 3.98389 7.65883 3.91389 7.61541 3.81144L6.27622 0.651711C6.17284 0.407802 5.82716 0.407802 5.72378 0.651711L4.38459 3.81144C4.34117 3.91389 4.24461 3.98389 4.13374 3.99329L0.708489 4.28389C0.444062 4.30633 0.336839 4.6358 0.537418 4.80957L3.13914 7.06344C3.22331 7.13635 3.26016 7.24989 3.23486 7.35834L2.45352 10.7076C2.39324 10.966 2.67351 11.1697 2.9007 11.0326L5.84498 9.25556Z" fill="#FFC700"/>
</svg>
