<svg width="16" height="16" viewBox="0 0 16 16" fill="none" xmlns="http://www.w3.org/2000/svg">
<path d="M11.1465 10.3738L10.8543 10.7246L11.1771 11.0474L15.2929 15.1632L15.1632 15.2929L11.0474 11.1771L10.7246 10.8543L10.3738 11.1465C9.18334 12.1381 7.65635 12.6326 6.11054 12.5271C4.56473 12.4216 3.11911 11.7242 2.07441 10.58C1.02971 9.43574 0.466359 7.93279 0.501555 6.38379C0.536752 4.83478 1.16778 3.35898 2.26338 2.26338C3.35898 1.16778 4.83478 0.536752 6.38379 0.501555C7.93279 0.466359 9.43574 1.02971 10.58 2.07441C11.7242 3.11911 12.4216 4.56473 12.5271 6.11054C12.6326 7.65635 12.1381 9.18334 11.1465 10.3738ZM0.704781 6.53106L0.704781 6.53161C0.706494 8.07617 1.32082 9.55697 2.41299 10.6491C3.50515 11.7413 4.98595 12.3556 6.53051 12.3573H6.53106C7.68339 12.3573 8.80984 12.0156 9.76797 11.3754C10.7261 10.7352 11.4729 9.82529 11.9138 8.76068C12.3548 7.69607 12.4702 6.5246 12.2454 5.39441C12.0206 4.26422 11.4657 3.22608 10.6509 2.41126C9.83604 1.59644 8.7979 1.04154 7.66771 0.816731C6.53752 0.591923 5.36605 0.707303 4.30144 1.14828C3.23683 1.58926 2.32689 2.33603 1.68669 3.29415C1.04649 4.25228 0.704781 5.37873 0.704781 6.53106Z" fill="#333333" stroke="#333333"/>
</svg>
