<svg width="111" height="74" viewBox="0 0 111 74" fill="none" xmlns="http://www.w3.org/2000/svg">
<rect width="111" height="74" rx="8" fill="#F6F6F6"/>
<path d="M54.1699 8.07446C49.3658 8.61971 45.188 11.5596 43.0439 15.9143C41.6218 18.7879 41.2313 21.8162 41.8723 25.0141C42.1965 26.6277 42.9923 28.5361 43.9207 29.9287L44.3702 30.5992L41.6808 35.2559C38.785 40.2663 38.7924 40.2516 39.1829 40.5537C39.2934 40.6421 39.4334 40.7084 39.4924 40.7084C39.5587 40.7084 40.885 40.4579 42.4397 40.1558C44.0018 39.8464 45.2838 39.6106 45.2986 39.6253C45.3133 39.64 45.748 40.8853 46.2564 42.3884L47.1922 45.1294H47.7154H48.2385L50.8248 40.6495L53.4036 36.177L54.0668 36.2138C54.4278 36.2359 55.172 36.2507 55.7173 36.2507C56.2625 36.2507 57.0067 36.2359 57.3751 36.2138L58.0309 36.177L60.6172 40.6495L63.1961 45.1294H63.7192H64.2423L65.1781 42.3884C65.6865 40.8853 66.1212 39.64 66.136 39.6253C66.1507 39.6106 67.477 39.8537 69.0833 40.1706L72.0011 40.7379L72.2001 40.5906C72.6569 40.2516 72.7011 40.3621 69.7612 35.2633L67.0644 30.5992L67.4917 29.9582C69.6875 26.6719 70.3875 22.612 69.4296 18.7142C67.8749 12.3996 62.0982 7.93446 55.592 8.00078C55.1131 8.00815 54.472 8.03762 54.1699 8.07446ZM57.9278 9.35654C62.0834 10.0934 65.6202 12.7901 67.4475 16.6143C69.2749 20.4458 69.0317 25.1614 66.836 28.8087C65.7676 30.5771 64.1981 32.1539 62.4224 33.2297C58.6719 35.5212 53.8752 35.7128 49.9479 33.7381C48.6143 33.0676 47.7964 32.4855 46.6617 31.395C41.9387 26.8193 41.4376 19.3553 45.5123 14.1459C46.1091 13.3796 47.3396 12.2007 48.128 11.6333C49.9185 10.3439 52.0332 9.51864 54.2436 9.24601C55.0394 9.15023 57.1025 9.21654 57.9278 9.35654ZM45.8733 32.2865C47.4575 33.797 49.3511 34.9391 51.3332 35.5875C51.7753 35.7349 52.151 35.8675 52.1658 35.8822C52.1805 35.897 51.2226 37.5843 50.0364 39.64C48.6585 42.0347 47.8627 43.3389 47.8259 43.2726C47.7964 43.221 47.4206 42.1526 47.0006 40.9C46.5733 39.6548 46.168 38.5717 46.0943 38.4906C46.0133 38.4022 45.8733 38.3506 45.7038 38.3506C45.5565 38.3506 44.3775 38.5643 43.0955 38.8222C41.3492 39.1685 40.7597 39.2643 40.7892 39.1832C40.8629 38.9916 45.1217 31.6455 45.1586 31.6455C45.1807 31.6455 45.4975 31.9329 45.8733 32.2865ZM68.457 35.3665C69.6359 37.4075 70.6233 39.1243 70.638 39.1832C70.6675 39.2495 70.0043 39.1464 68.3391 38.8148C67.0496 38.5569 65.8781 38.3506 65.7307 38.3506C65.5613 38.3506 65.4213 38.4022 65.3402 38.4906C65.2665 38.5717 64.8613 39.6548 64.4339 40.9C64.0139 42.1526 63.6381 43.221 63.6087 43.2726C63.5718 43.3389 62.7834 42.0347 61.4056 39.6474C60.2193 37.599 59.254 35.9117 59.254 35.897C59.254 35.8749 59.6298 35.7422 60.0867 35.5949C61.1035 35.2633 62.5919 34.5486 63.4908 33.9518C64.235 33.4655 65.296 32.596 65.8486 32.0213C66.0476 31.815 66.2318 31.6455 66.2612 31.6455C66.2907 31.6455 67.2781 33.3181 68.457 35.3665Z" fill="#333333"/>
<path d="M54.3541 11.6111C49.7563 12.2448 46.1385 15.6931 45.2838 20.2615C45.0922 21.2709 45.0922 23.0098 45.2838 24.0193C46.087 28.3371 49.2774 31.5865 53.6394 32.5443C54.5973 32.758 56.6825 32.7727 57.6551 32.5812C62.0097 31.7117 65.3402 28.3592 66.1507 24.0193C66.3423 23.0098 66.3423 21.2709 66.1507 20.2615C65.3402 15.9363 62.0024 12.5543 57.6993 11.7143C56.9625 11.5669 55.0762 11.508 54.3541 11.6111ZM57.5593 12.8858C60.9708 13.6153 63.5792 15.9363 64.6697 19.2152C66.2833 24.0708 63.616 29.4128 58.7603 31.0633C57.633 31.4391 57.0435 31.5349 55.6804 31.5275C54.671 31.5275 54.3026 31.4907 53.7573 31.3654C49.9774 30.4738 47.2732 27.7402 46.4627 23.9677C46.2785 23.113 46.2785 21.1677 46.4627 20.313C47.3396 16.2236 50.5447 13.2763 54.6857 12.7532C55.2015 12.6869 57.0214 12.7753 57.5593 12.8858Z" fill="#333333"/>
<path d="M55.1501 15.8552C54.8627 16.1499 54.2438 17.0636 53.6691 18.0215L53.2859 18.6551L52.0186 18.972C49.9849 19.473 49.5944 19.6719 49.5797 20.2467C49.5723 20.5488 50.0291 21.234 51.0607 22.435L51.7828 23.2824L51.6944 24.4245C51.5249 26.5907 51.5691 26.9591 52.0112 27.2318C52.2765 27.3939 52.2765 27.3939 52.7628 27.2686C53.028 27.1949 53.8091 26.9149 54.4943 26.6423L55.7322 26.1413L56.97 26.6423C57.6553 26.9223 58.4289 27.2023 58.6868 27.2686C59.1584 27.3939 59.1584 27.3939 59.4237 27.2318C59.8436 26.9739 59.8805 26.7307 59.77 24.9402C59.7258 24.1076 59.6668 23.4077 59.6521 23.3782C59.63 23.3487 59.8805 23.0171 60.1973 22.6414C61.0963 21.5656 61.6562 20.8656 61.7447 20.6888C61.7962 20.6003 61.8331 20.394 61.8331 20.2246C61.8331 19.6572 61.4941 19.4804 59.4016 18.9572L58.1416 18.6478L57.5448 17.6825C56.83 16.5331 56.2627 15.752 56.0858 15.6563C56.0122 15.612 55.828 15.5826 55.6732 15.5826C55.4595 15.5826 55.349 15.6341 55.1501 15.8552ZM56.5279 18.2793C56.9553 18.9572 57.3753 19.5541 57.4637 19.613C57.5521 19.6719 58.2447 19.8783 58.9963 20.0772C59.7552 20.2761 60.3889 20.453 60.411 20.4677C60.4257 20.4898 60.05 20.9761 59.5637 21.5582C59.0847 22.1403 58.65 22.6929 58.6058 22.7814C58.5026 22.9729 58.4953 23.754 58.591 25.0434C58.6279 25.5739 58.65 26.0086 58.6426 26.0234C58.6279 26.0307 58.1268 25.8392 57.53 25.596C56.9332 25.3529 56.2479 25.1023 56.0195 25.0434L55.6069 24.9255L54.2069 25.4855C53.4406 25.7876 52.7996 26.0234 52.7849 26.0086C52.7701 26.0013 52.7922 25.5444 52.8364 25.0066C52.9543 23.5255 52.9396 22.9582 52.7775 22.6929C52.7038 22.5677 52.2691 22.0224 51.8123 21.4772C51.1049 20.6225 51.0091 20.4751 51.127 20.4309C51.2007 20.394 51.8344 20.2246 52.5343 20.0477C53.2343 19.8635 53.8827 19.6719 53.9785 19.613C54.0669 19.5541 54.4869 18.9499 54.9069 18.2793C55.3269 17.6088 55.6953 17.0562 55.7174 17.0562C55.7395 17.0562 56.1079 17.6088 56.5279 18.2793Z" fill="#2E8B57"/>
<path d="M26.0918 56.0273H28.4434V53.0879H29.6328V56.5059H31.2598V52.1582H32.5039V63.5742H31.2598V57.5859H29.6328V61.1406H24.8613V53.0879H26.0918V56.0273ZM28.4434 60.0605V57.0801H26.0918V60.0605H28.4434ZM34.9922 64.1621H33.748V51.9121H34.9922V64.1621ZM42.7715 53.6484C42.7715 54.2956 42.9788 54.9245 43.3936 55.5352C43.8128 56.1458 44.3665 56.6676 45.0547 57.1006C45.7428 57.529 46.4766 57.8138 47.2559 57.9551L46.6543 59.0352C46.0026 58.8939 45.3783 58.6615 44.7812 58.3379C44.1842 58.0143 43.651 57.6201 43.1816 57.1553C42.7168 56.6859 42.3545 56.1686 42.0947 55.6035C41.8304 56.1641 41.4658 56.679 41.001 57.1484C40.5407 57.6133 40.012 58.0075 39.415 58.3311C38.818 58.6546 38.1914 58.8893 37.5352 59.0352L36.9609 57.9551C37.7311 57.8092 38.458 57.5221 39.1416 57.0938C39.8252 56.6608 40.3721 56.1413 40.7822 55.5352C41.1969 54.9245 41.4043 54.2956 41.4043 53.6484V52.7188H42.7715V53.6484ZM47.7617 62.5488H36.5508V61.4688H47.7617V62.5488ZM58.5898 59.4727H50.0586V52.9238H58.4668V53.9766H51.3711V55.6309H58.207V56.6562H51.3711V58.4336H58.5898V59.4727ZM59.8613 62.6172H48.6504V61.5508H59.8613V62.6172ZM67.873 53.5938C67.873 54.0632 67.9642 54.5212 68.1465 54.9678C68.3288 55.4144 68.5977 55.8154 68.9531 56.1709C69.3086 56.5264 69.737 56.8066 70.2383 57.0117L69.541 57.9824C68.9987 57.7591 68.5361 57.4447 68.1533 57.0391C67.7751 56.6335 67.4788 56.1595 67.2646 55.6172C67.0368 56.2233 66.7178 56.7656 66.3076 57.2441C65.902 57.7181 65.4167 58.0872 64.8516 58.3516L64.1133 57.3672C64.6419 57.1302 65.0931 56.8066 65.4668 56.3965C65.8451 55.9863 66.1299 55.5329 66.3213 55.0361C66.5173 54.5394 66.6152 54.0404 66.6152 53.5391V52.4043H67.873V53.5938ZM74.6133 58.4062H73.3828V51.9258H74.6133V58.4062ZM72.1797 58.3242H70.9355V55.1523H69.1855V54.0996H70.9355V52.1309H72.1797V58.3242ZM74.6133 61.9062H67.709V63H75.0781V64.0391H66.4238V60.9219H73.3418V59.9375H66.3965V58.9121H74.6133V61.9062ZM86.4668 64.1895H85.1816V57.5996H82.9395V56.5195H85.1816V51.9121H86.4668V64.1895ZM82.2148 57.3945H78.0176V60.1836C79.084 60.179 80.0091 60.1517 80.793 60.1016C81.5814 60.0469 82.3789 59.9466 83.1855 59.8008L83.2949 60.8672C82.4382 61.0221 81.5859 61.127 80.7383 61.1816C79.8952 61.2363 78.8789 61.2682 77.6895 61.2773H76.7188V56.3418H80.957V54.0723H76.6914V53.0195H82.2148V57.3945Z" fill="#333333"/>
</svg>
