<svg width="111" height="74" viewBox="0 0 111 74" fill="none" xmlns="http://www.w3.org/2000/svg">
<rect width="111" height="74" rx="8" fill="#F6F6F6"/>
<path d="M20.1992 53.1973H25.873V52.1172H27.1719V56.1914H18.9141V52.1172H20.1992V53.1973ZM25.873 55.207V54.1543H20.1992V55.207H25.873ZM28.6211 58.1465H17.4512V57.1211H28.6211V58.1465ZM27.2129 61.9746H20.0762V63.041H27.5547V64.0391H18.8047V61.0449H25.9277V60.1016H18.791V59.1309H27.2129V61.9746ZM40.7617 62.6992H29.5508V61.6055H34.4863V59.459H30.918V55.5625H38.1094V53.8398H30.8906V52.7734H39.3945V56.6016H32.2031V58.3926H39.6816V59.459H35.7715V61.6055H40.7617V62.6992ZM51.8496 64.1621H50.5645V57.832H47.8164V56.7656H50.5645V51.9121H51.8496V64.1621ZM47.8574 53.2246C47.8483 55.1204 47.4154 56.793 46.5586 58.2422C45.7018 59.6914 44.2845 60.9082 42.3066 61.8926L41.623 60.8672C43.209 60.0924 44.3962 59.1605 45.1846 58.0713C45.973 56.9775 46.4242 55.7083 46.5381 54.2637H42.1699V53.2246H47.8574ZM58.8086 56.0273H61.1602V53.0879H62.3496V56.5059H63.9766V52.1582H65.2207V63.5742H63.9766V57.5859H62.3496V61.1406H57.5781V53.0879H58.8086V56.0273ZM61.1602 60.0605V57.0801H58.8086V60.0605H61.1602ZM67.709 64.1621H66.4648V51.9121H67.709V64.1621ZM75.4883 53.6484C75.4883 54.2956 75.6956 54.9245 76.1104 55.5352C76.5296 56.1458 77.0833 56.6676 77.7715 57.1006C78.4596 57.529 79.1934 57.8138 79.9727 57.9551L79.3711 59.0352C78.7194 58.8939 78.0951 58.6615 77.498 58.3379C76.901 58.0143 76.3678 57.6201 75.8984 57.1553C75.4336 56.6859 75.0713 56.1686 74.8115 55.6035C74.5472 56.1641 74.1826 56.679 73.7178 57.1484C73.2575 57.6133 72.7288 58.0075 72.1318 58.3311C71.5348 58.6546 70.9082 58.8893 70.252 59.0352L69.6777 57.9551C70.4479 57.8092 71.1748 57.5221 71.8584 57.0938C72.542 56.6608 73.0889 56.1413 73.499 55.5352C73.9137 54.9245 74.1211 54.2956 74.1211 53.6484V52.7188H75.4883V53.6484ZM80.4785 62.5488H69.2676V61.4688H80.4785V62.5488ZM91.3066 59.4727H82.7754V52.9238H91.1836V53.9766H84.0879V55.6309H90.9238V56.6562H84.0879V58.4336H91.3066V59.4727ZM92.5781 62.6172H81.3672V61.5508H92.5781V62.6172Z" fill="#333333"/>
<path d="M40.6836 11.1405C40.5093 11.2276 40.315 11.4019 40.2145 11.556L40.0335 11.8308L40.0134 19.8795L40 27.935L40.1407 28.1159C40.3284 28.3572 40.6769 28.3572 40.8645 28.1159C41.0053 27.935 41.0053 27.8948 41.0053 22.587V17.2324H53.8725H66.7398V18.6598V20.094L65.6273 22.4329C65.0108 23.7196 64.5081 24.8522 64.5081 24.9527C64.5014 25.328 64.9772 25.5559 65.2855 25.3213C65.3458 25.2811 65.6206 24.7651 65.9021 24.182C66.1835 23.6057 66.4248 23.1299 66.4449 23.1299C66.5052 23.1299 69.4473 24.5372 69.4942 24.5908C69.5545 24.6512 64.0323 36.2384 63.9519 36.2183C63.7977 36.1848 60.9428 34.7975 60.9294 34.7439C60.916 34.7171 61.7068 33.0149 62.6786 30.9709C63.6503 28.9268 64.4679 27.1844 64.4947 27.0973C64.5952 26.7689 64.1663 26.4204 63.8178 26.5477C63.6771 26.6013 63.523 26.8694 63.0002 27.9551L62.3569 29.2954H54.8443C47.6466 29.2954 47.3183 29.3021 47.2177 29.4161C47.0569 29.597 47.0703 29.9857 47.2445 30.1398C47.3786 30.2605 47.6131 30.2672 54.6231 30.2873C60.4402 30.3007 61.8542 30.3208 61.8274 30.3878C61.8073 30.4347 61.546 31.0044 61.2377 31.6611L60.6748 32.8473H52.3445C46.6012 32.8473 43.9741 32.8674 43.8803 32.9211C43.5586 33.0886 43.5854 33.6247 43.9272 33.7789C44.0478 33.8325 46.2996 33.8526 52.1301 33.8526C56.5532 33.8526 60.1721 33.866 60.1721 33.8861C60.1721 33.9062 60.0649 34.1274 59.9376 34.382C59.7298 34.7975 59.703 34.9115 59.6628 35.6218L59.6159 36.3992L51.8151 36.4126L44.0076 36.4327L43.8803 36.5936C43.7127 36.7946 43.7194 37.0091 43.8937 37.2302L44.0277 37.4045H51.7548C56.0037 37.4045 59.4953 37.4179 59.5087 37.4313C59.5221 37.4514 59.502 37.9875 59.455 38.6242C59.3411 40.3063 59.3478 40.7553 59.4885 40.9296C59.7633 41.2714 60.1654 41.3116 60.5206 41.0368C60.6546 40.9363 61.6398 40.0383 62.7121 39.0464L64.6556 37.2369L65.6809 35.079L66.7063 32.9143L66.7264 38.5237C66.7331 42.605 66.7197 44.1464 66.6661 44.2134C66.5588 44.3408 41.213 44.3542 41.0857 44.2268C41.0254 44.1665 41.0053 42.4777 41.0053 37.056V29.9589L40.8377 29.7981C40.63 29.5836 40.3753 29.5836 40.1608 29.7981L40 29.9589L40.0134 37.2235L40.0335 44.4815L40.2145 44.7563C40.3217 44.9171 40.5093 45.0846 40.6836 45.1718L40.9784 45.3125H53.8725H66.7666L67.0615 45.1718C67.2357 45.0846 67.4234 44.9171 67.5306 44.7563L67.7115 44.4815L67.745 37.5452L67.7786 30.6023L69.6818 26.6483C70.7273 24.4702 71.6253 22.5602 71.6722 22.3994C71.8867 21.7292 71.6856 21.0322 71.1361 20.4827C70.868 20.2146 70.6 20.0538 69.8561 19.712C68.9312 19.2831 68.9111 19.2764 68.3348 19.2764H67.745L67.7316 15.5502L67.7115 11.8308L67.5306 11.556C67.4234 11.3952 67.2357 11.2276 67.0615 11.1405L66.7666 10.9998H53.8658H40.9717L40.6836 11.1405ZM66.6594 12.0855C66.7197 12.1458 66.7398 12.7087 66.7398 14.1965V16.2271H53.8725H41.0053V14.1965C41.0053 12.7087 41.0254 12.1458 41.0857 12.0855C41.1996 11.9715 66.5454 11.9715 66.6594 12.0855ZM69.5679 20.6904C70.4525 21.1194 70.6804 21.3338 70.7407 21.7694C70.7675 21.9839 70.7072 22.1648 70.3989 22.8283C70.1912 23.2639 70.0102 23.6325 69.9968 23.6459C69.97 23.6727 67.0012 22.2787 66.9207 22.1983C66.8604 22.138 67.5574 20.6502 67.7249 20.5028C68.1203 20.1476 68.5291 20.1878 69.5679 20.6904ZM62.0419 36.4327C62.7456 36.7611 63.3219 37.0493 63.3219 37.0694C63.3219 37.0895 63.0539 37.3509 62.7322 37.6525L62.1424 38.1953L61.3583 37.82L60.5742 37.4514V37.1766C60.5742 36.6606 60.6613 35.7894 60.7083 35.8095C60.7351 35.8229 61.3382 36.0977 62.0419 36.4327ZM61.3047 38.9191C61.3382 38.9459 60.5139 39.7434 60.4402 39.7501C60.4 39.7501 60.4335 38.7582 60.4737 38.6242C60.4938 38.5639 60.6077 38.5907 60.8892 38.7113C61.097 38.8051 61.2846 38.899 61.3047 38.9191Z" fill="#333333"/>
<path d="M58.215 13.7741C58.1346 13.8143 58.0207 13.9349 57.9604 14.0354C57.8732 14.1963 57.8732 14.2365 57.9604 14.3973C58.2351 14.8932 58.8986 14.7525 58.8986 14.203C58.8986 13.8478 58.53 13.6199 58.215 13.7741Z" fill="#333333"/>
<path d="M43.9606 13.9219C43.8801 14.0224 43.8198 14.1431 43.8198 14.19C43.8198 14.3843 43.9874 14.6189 44.175 14.6859C44.309 14.7328 46.2056 14.7529 49.8648 14.7529C54.5492 14.7529 55.3803 14.7395 55.5411 14.6524C55.8494 14.4983 55.9097 14.1431 55.6818 13.8951L55.5411 13.7477H49.8178H44.0946L43.9606 13.9219Z" fill="#333333"/>
<path d="M60.6414 13.8816C60.5676 13.9553 60.5073 14.1028 60.5073 14.21C60.5073 14.6858 61.0435 14.8869 61.3584 14.525C61.5461 14.3038 61.5528 14.1497 61.3718 13.9218C61.1976 13.7007 60.8424 13.6806 60.6414 13.8816Z" fill="#333333"/>
<path d="M63.3017 13.8214C62.9935 14.0024 63.027 14.5251 63.3621 14.6792C63.5966 14.7865 63.6837 14.7731 63.8848 14.6122C64.2266 14.3442 64.0389 13.7477 63.61 13.7477C63.5028 13.7477 63.3688 13.7812 63.3017 13.8214Z" fill="#333333"/>
<path d="M45.3817 20.6166C44.9662 20.7976 44.9527 20.8914 44.9729 23.17L44.993 25.2207L45.2141 25.415L45.4286 25.6094H46.5209C47.553 25.6094 47.6334 25.6027 47.9551 25.4418C48.7191 25.0598 48.9939 24.0613 48.5382 23.2839C48.451 23.1297 48.317 22.9622 48.2433 22.9086C48.1227 22.8282 48.116 22.788 48.1897 22.4529C48.3706 21.5682 47.9216 20.764 47.1241 20.5764C46.722 20.4826 45.6296 20.5094 45.3817 20.6166ZM47.0638 21.6621C47.2983 21.8497 47.305 22.1982 47.0705 22.4261C46.9297 22.5735 46.8493 22.5936 46.4338 22.5936H45.9647V22.0575V21.5213H46.4271C46.789 21.5213 46.923 21.5481 47.0638 21.6621ZM47.5463 23.6525C47.6535 23.7195 47.7742 23.9742 47.7742 24.1216C47.7742 24.1953 47.7138 24.3293 47.6334 24.4299C47.4994 24.5974 47.4793 24.6041 46.7287 24.6041H45.9647V24.1015V23.5989H46.722C47.1308 23.5989 47.5061 23.6257 47.5463 23.6525Z" fill="#2E8B57"/>
<path d="M50.1397 20.5831C50.0593 20.6166 49.9655 20.7037 49.9253 20.7774C49.8784 20.8646 49.8516 21.6755 49.8516 23.0962V25.281L50.0191 25.4418C50.1799 25.6094 50.1866 25.6094 51.5806 25.6094C52.9545 25.6094 52.9813 25.6094 53.122 25.4552C53.3297 25.2341 53.3163 24.9191 53.0952 24.7449C52.9343 24.6175 52.8271 24.6041 51.8889 24.6041H50.8568V22.7343C50.8568 21.0522 50.8434 20.8512 50.7429 20.7305C50.6022 20.563 50.3408 20.496 50.1397 20.5831Z" fill="#2E8B57"/>
<path d="M55.3337 20.6032C55.1594 20.6568 54.9651 20.7372 54.898 20.7841C54.5496 21.0455 54.3753 21.2533 54.2346 21.5548C54.0871 21.8698 54.0737 21.9636 54.0737 23.0962C54.0737 24.1283 54.0938 24.3428 54.2011 24.5706C54.4959 25.2006 55.1527 25.6094 55.8899 25.6094C56.5064 25.6094 56.922 25.4485 57.304 25.0665C57.7664 24.6041 57.8468 24.2757 57.8133 22.9086C57.7865 21.7023 57.7329 21.5012 57.2771 21.0522C56.8348 20.6032 56.0038 20.4156 55.3337 20.6032ZM56.426 21.6755C56.5467 21.7559 56.6874 21.9033 56.7343 21.9905C56.8549 22.2317 56.8482 23.8669 56.7276 24.1685C56.5936 24.4835 56.292 24.6242 55.8296 24.5907C55.5146 24.5639 55.4275 24.5237 55.2666 24.3428L55.079 24.135V23.0761C55.079 21.91 55.1125 21.7894 55.5079 21.6152C55.8229 21.4811 56.1647 21.5012 56.426 21.6755Z" fill="#2E8B57"/>
<path d="M59.6693 20.617C59.2806 20.751 58.8584 21.2402 58.7712 21.6624C58.6573 22.1785 58.6774 24.2426 58.798 24.6447C58.9053 25.0133 59.2202 25.3819 59.5486 25.5159C59.8167 25.6298 61.3246 25.6432 61.653 25.536C62.0015 25.4154 62.303 25.1607 62.4639 24.8524C62.6582 24.4839 62.6783 23.4853 62.5041 23.1569C62.2561 22.7012 61.7937 22.4599 61.157 22.4599C60.7817 22.4599 60.507 22.6744 60.507 22.9626C60.507 23.0564 60.5807 23.2105 60.6745 23.2977C60.8018 23.4317 60.9024 23.4652 61.1704 23.4652C61.5859 23.4652 61.6798 23.5925 61.6262 24.0885C61.5859 24.5643 61.4988 24.6045 60.6276 24.6045C59.6492 24.6045 59.6894 24.6648 59.7162 23.0296C59.743 21.4279 59.6626 21.5217 61.0163 21.5217C61.8942 21.5217 61.9948 21.5083 62.1154 21.3877C62.3164 21.1866 62.2963 20.8314 62.0752 20.6572C61.9143 20.5298 61.8071 20.5164 60.9158 20.5164C60.2523 20.5231 59.8502 20.55 59.6693 20.617Z" fill="#2E8B57"/>
</svg>
