<svg width="12" height="12" viewBox="0 0 12 12" fill="none" xmlns="http://www.w3.org/2000/svg">
<path fill-rule="evenodd" clip-rule="evenodd" d="M11.3797 0.255931C11.5434 0.419667 11.6354 0.641711 11.6354 0.873233C11.6354 1.10476 11.5434 1.3268 11.3797 1.49053L4.83535 8.03492C4.74886 8.12143 4.64618 8.19005 4.53317 8.23687C4.42016 8.28368 4.29904 8.30778 4.17672 8.30778C4.05439 8.30778 3.93327 8.28368 3.82026 8.23687C3.70725 8.19005 3.60457 8.12143 3.51809 8.03492L0.266556 4.78398C0.183163 4.70343 0.116646 4.60709 0.0708866 4.50056C0.0251268 4.39404 0.0010404 4.27946 3.29664e-05 4.16353C-0.000974464 4.0476 0.0211173 3.93262 0.0650189 3.82532C0.108921 3.71802 0.173753 3.62053 0.255734 3.53855C0.337714 3.45657 0.4352 3.39174 0.542505 3.34783C0.649809 3.30393 0.764782 3.28184 0.880716 3.28285C0.996649 3.28386 1.11122 3.30794 1.21775 3.3537C1.32427 3.39946 1.42062 3.46598 1.50116 3.54937L4.17643 6.22464L10.1445 0.255931C10.2256 0.174794 10.3219 0.11043 10.4279 0.0665164C10.5339 0.0226026 10.6474 0 10.7621 0C10.8769 0 10.9904 0.0226026 11.0964 0.0665164C11.2024 0.11043 11.2987 0.174794 11.3797 0.255931Z" fill="white"/>
</svg>
