<svg width="40" height="40" viewBox="0 0 40 40" fill="none" xmlns="http://www.w3.org/2000/svg">
<path d="M40 20C40 31.0457 31.0457 40 20 40C8.9543 40 0 31.0457 0 20C0 8.9543 8.9543 0 20 0C31.0457 0 40 8.9543 40 20Z" fill="#F6F6F6"/>
<path d="M31.7666 17.6498H30.8V17.6H20V22.4H26.7818C25.7924 25.1942 23.1338 27.2 20 27.2C16.0238 27.2 12.8 23.9762 12.8 20C12.8 16.0238 16.0238 12.8 20 12.8C21.8354 12.8 23.5052 13.4924 24.7766 14.6234L28.1708 11.2292C26.0276 9.2318 23.1608 8 20 8C13.373 8 8 13.373 8 20C8 26.627 13.373 32 20 32C26.627 32 32 26.627 32 20C32 19.1954 31.9172 18.41 31.7666 17.6498Z" fill="#FFC107"/>
<path d="M9.3833 14.4146L13.3259 17.306C14.3927 14.6648 16.9763 12.8 19.9997 12.8C21.8351 12.8 23.5049 13.4924 24.7763 14.6234L28.1705 11.2292C26.0273 9.2318 23.1605 8 19.9997 8C15.3905 8 11.3933 10.6022 9.3833 14.4146Z" fill="#FF3D00"/>
<path d="M19.9999 31.9997C23.0995 31.9997 25.9159 30.8135 28.0453 28.8845L24.3313 25.7417C23.0862 26.6892 21.5644 27.2014 19.9999 27.1997C16.8787 27.1997 14.2285 25.2095 13.2301 22.4321L9.31689 25.4471C11.3029 29.3333 15.3361 31.9997 19.9999 31.9997Z" fill="#4CAF50"/>
<path d="M31.7666 17.6499H30.8V17.6001H20V22.4001H26.7818C26.3085 23.7299 25.456 24.892 24.3296 25.7427L24.3314 25.7415L28.0454 28.8843C27.7826 29.1231 32 26.0001 32 20.0001C32 19.1955 31.9172 18.4101 31.7666 17.6499Z" fill="#1976D2"/>
</svg>
