<svg width="50" height="50" viewBox="0 0 50 50" fill="none" xmlns="http://www.w3.org/2000/svg">
<circle cx="25" cy="25" r="25" fill="#EAEAEA"/>
<path fill-rule="evenodd" clip-rule="evenodd" d="M20.1111 18.8889C20.1111 17.5923 20.6262 16.3488 21.543 15.4319C22.4599 14.5151 23.7034 14 25 14C26.2966 14 27.5401 14.5151 28.457 15.4319C29.3738 16.3488 29.8889 17.5923 29.8889 18.8889C29.8889 20.1855 29.3738 21.429 28.457 22.3459C27.5401 23.2627 26.2966 23.7778 25 23.7778C23.7034 23.7778 22.4599 23.2627 21.543 22.3459C20.6262 21.429 20.1111 20.1855 20.1111 18.8889ZM20.1111 26.2222C18.4903 26.2222 16.936 26.8661 15.7899 28.0121C14.6438 29.1582 14 30.7126 14 32.3333C14 33.3058 14.3863 34.2384 15.0739 34.9261C15.7616 35.6137 16.6942 36 17.6667 36H32.3333C33.3058 36 34.2384 35.6137 34.9261 34.9261C35.6137 34.2384 36 33.3058 36 32.3333C36 30.7126 35.3562 29.1582 34.2101 28.0121C33.064 26.8661 31.5097 26.2222 29.8889 26.2222H20.1111Z" fill="#999999"/>
</svg>
