<svg width="16" height="20" viewBox="0 0 16 20" fill="none" xmlns="http://www.w3.org/2000/svg">
<path d="M4.65258e-09 2C4.65258e-09 1.46957 0.210714 0.960859 0.585786 0.585786C0.960859 0.210714 1.46957 0 2 0H14C14.5304 0 15.0391 0.210714 15.4142 0.585786C15.7893 0.960859 16 1.46957 16 2V19C16 19.1837 15.9494 19.3639 15.8538 19.5208C15.7581 19.6776 15.6211 19.8051 15.4578 19.8892C15.2944 19.9733 15.1111 20.0107 14.9278 19.9975C14.7446 19.9842 14.5685 19.9207 14.419 19.814L8 15.229L1.581 19.814C1.43147 19.9207 1.25542 19.9842 1.07218 19.9975C0.88894 20.0107 0.705587 19.9733 0.542245 19.8892C0.378903 19.8051 0.241886 19.6776 0.146232 19.5208C0.050577 19.3639 -1.77145e-05 19.1837 4.65258e-09 19V2ZM14 2H2V17.057L7.419 13.187C7.58855 13.066 7.79168 13.0009 8 13.0009C8.20832 13.0009 8.41145 13.066 8.581 13.187L14 17.056V2Z" fill="#2E8B57"/>
</svg>
