<svg width="16" height="20" viewBox="0 0 16 20" fill="none" xmlns="http://www.w3.org/2000/svg">
<path fill-rule="evenodd" clip-rule="evenodd" d="M0.585815 0.585815C0.210693 0.960815 0 1.4696 0 2V14V19C0 19.1837 0.0505981 19.3639 0.14624 19.5208C0.241882 19.6776 0.378906 19.8051 0.542236 19.8892C0.705566 19.9733 0.888916 20.0107 1.0722 19.9974C1.25543 19.9843 1.43146 19.9208 1.58099 19.814L8 15.229L14.419 19.814C14.5685 19.9208 14.7446 19.9843 14.9278 19.9974C15.1111 20.0107 15.2944 19.9733 15.4578 19.8892C15.6211 19.8051 15.7581 19.6776 15.8538 19.5208C15.9494 19.3639 16 19.1837 16 19V14V2C16 1.4696 15.7893 0.960815 15.4142 0.585815C15.0391 0.210693 14.5305 0 14 0H2C1.46954 0 0.960876 0.210693 0.585815 0.585815ZM10.1408 14H9.71967L9.89172 14.1228L10.1408 14Z" fill="#2E8B57"/>
</svg>
