<svg width="22" height="18" viewBox="0 0 22 18" fill="none" xmlns="http://www.w3.org/2000/svg">
<path fill-rule="evenodd" clip-rule="evenodd" d="M10 15V15.05C9.9646 15.0332 9.9292 15.0165 9.89374 15H10ZM8.40002 16.525C9.33331 16.875 10.2 17.3667 11 18C11.8 17.3667 12.6667 16.875 13.6 16.525C14.5333 16.175 15.5 16 16.5 16C17.2007 16 17.8883 16.0917 18.563 16.275C19.2377 16.4584 19.8834 16.7167 20.5 17.05C20.8493 17.2333 21.1866 17.225 21.512 17.025C21.8373 16.825 22 16.5333 22 16.15V4.09998C22.0007 3.91663 21.955 3.7417 21.863 3.57495C21.771 3.40833 21.6334 3.28333 21.45 3.19995C21.2173 3.06665 20.98 2.94995 20.738 2.84998C20.496 2.75 20.25 2.65833 20 2.57495V14.6C19.4174 14.4 18.8383 14.25 18.263 14.15C17.6877 14.05 17.1 14 16.5 14C15.7173 13.9994 14.955 14.0867 14.213 14.262C13.471 14.4374 12.7333 14.7 12 15.05V4.59998C12.0007 4.3833 11.955 4.20837 11.863 4.07495C11.771 3.94165 11.6334 3.82495 11.45 3.72498C10.45 3.14172 9.51666 2.70837 8.65002 2.42505C7.78333 2.14172 6.73334 2 5.5 2C4.63336 2 3.78333 2.09998 2.95001 2.30005C2.11664 2.5 1.31665 2.80005 0.549988 3.19995C0.36731 3.28333 0.22998 3.40833 0.138 3.57495C0.0460205 3.7417 0 3.91663 0 4.09998V16.15C0.000671387 16.5333 0.16333 16.825 0.487976 17.025C0.812683 17.225 1.15002 17.2333 1.5 17.05C2.11731 16.7167 2.76331 16.4584 3.43799 16.275C4.11267 16.0917 4.79999 16 5.5 16C6.5 16 7.46667 16.175 8.40002 16.525ZM14.5 1V12L17.5 11V0L14.5 1Z" fill="#2E8B57"/>
</svg>
