<svg width="112" height="74" viewBox="0 0 112 74" fill="none" xmlns="http://www.w3.org/2000/svg">
<rect width="112" height="74" rx="8" fill="#F6F6F6"/>
<path d="M40.6094 60.8945H39.3105V51.9258H40.6094V60.8945ZM40.9785 63.9023H32.5977V60.0469H33.9102V62.8496H40.9785V63.9023ZM34.9082 53.8125C34.9036 54.4095 35.0221 54.9792 35.2637 55.5215C35.5098 56.0638 35.8607 56.5423 36.3164 56.957C36.7721 57.3717 37.3099 57.6862 37.9297 57.9004L37.2598 58.9395C36.5579 58.6797 35.9495 58.3014 35.4346 57.8047C34.9242 57.3034 34.5299 56.7155 34.252 56.041C33.9785 56.7611 33.5798 57.3923 33.0557 57.9346C32.5361 58.4769 31.9232 58.8848 31.2168 59.1582L30.5195 58.1328C31.1484 57.9004 31.693 57.5632 32.1533 57.1211C32.6182 56.679 32.9714 56.1709 33.2129 55.5967C33.459 55.0225 33.582 54.4277 33.582 53.8125V52.5957H34.9082V53.8125ZM52.1758 55.5352H53.9531V56.6152H52.1758V60.8125H50.8633V51.9121H52.1758V55.5352ZM48.8535 52.8418C48.8535 53.8991 48.6234 54.863 48.1631 55.7334C47.7028 56.6038 47.0397 57.3558 46.1738 57.9893C45.3125 58.6182 44.2826 59.1126 43.084 59.4727L42.5371 58.4336C43.4896 58.1465 44.3167 57.7796 45.0186 57.333C45.7249 56.8864 46.2832 56.3737 46.6934 55.7949C47.1081 55.2161 47.3564 54.5918 47.4385 53.9219H43.0566V52.8418H48.8535ZM52.6816 63.9023H44.3965V59.8965H45.709V62.8496H52.6816V63.9023ZM67.9941 58.5977H64.2891V61.5918H69.2793V62.6582H58.0684V61.5918H63.0039V58.5977H59.4629V52.8555H67.8848V53.9082H60.7617V57.5586H67.9941V58.5977ZM74.584 55.0293C74.584 55.7721 74.7139 56.499 74.9736 57.21C75.238 57.9209 75.6071 58.5521 76.0811 59.1035C76.555 59.6549 77.0996 60.0697 77.7148 60.3477L76.9219 61.3867C76.2337 61.0449 75.6322 60.5459 75.1172 59.8896C74.6068 59.2334 74.2148 58.4792 73.9414 57.627C73.668 58.5247 73.2692 59.3245 72.7451 60.0264C72.221 60.7236 71.6126 61.2546 70.9199 61.6191L70.0996 60.5664C70.7194 60.2702 71.2686 59.8327 71.7471 59.2539C72.2301 58.6706 72.6038 58.0098 72.8682 57.2715C73.137 56.5286 73.2715 55.7812 73.2715 55.0293V52.9375H74.584V55.0293ZM80.3809 64.1895H79.0957V57.0391H76.3613V55.9863H79.0957V51.9121H80.3809V64.1895Z" fill="#333333"/>
<path d="M51.17 9.07319C49.7274 9.5565 48.8559 10.8966 49.0756 12.2733C49.288 13.5768 50.3718 14.7778 52.0854 15.598L52.6273 15.8616H44.9601C37.3881 15.8616 37.2929 15.8616 37.1465 16.0081C37.0073 16.1472 37 16.2497 37 19.3327V22.5182L37.1611 22.6281C37.2929 22.7233 37.5639 22.7452 38.5525 22.7452H39.7827V33.2171C39.7827 43.5938 39.7827 43.689 39.9292 43.8355C40.0757 43.9819 40.1709 43.9819 55.7469 43.9819C71.3229 43.9819 71.4181 43.9819 71.5646 43.8355C71.711 43.689 71.711 43.5938 71.711 33.2171V22.7452H72.9413C73.9299 22.7452 74.2008 22.7233 74.3327 22.6281L74.4938 22.5182V19.3327C74.4938 16.2497 74.4864 16.1472 74.3473 16.0081C74.2008 15.8616 74.1056 15.8616 66.5337 15.8616H58.8665L59.4084 15.598C61.122 14.7778 62.2058 13.5768 62.4181 12.2733C62.6159 11.0504 61.9202 9.80549 60.7265 9.24161C60.2945 9.03657 60.1846 9.0146 59.5548 9.0146C58.9544 9.0146 58.8006 9.04389 58.4271 9.21965C57.8559 9.48327 57.4165 9.84942 57.0064 10.3986C56.6256 10.9186 56.1057 11.9658 55.9153 12.6175C55.8421 12.8738 55.7689 13.0789 55.7469 13.0789C55.7249 13.0789 55.6517 12.8738 55.5785 12.6175C55.3881 11.9658 54.8681 10.9186 54.4873 10.3986C53.8136 9.49792 53.0447 9.05122 52.0634 9.00728C51.6826 8.98531 51.3531 9.0146 51.17 9.07319ZM52.825 10.1204C53.7916 10.6037 54.4361 11.6289 54.9047 13.3864C55.0805 14.0675 55.3514 15.7005 55.2929 15.7591C55.2343 15.8177 53.7331 15.3636 53.0154 15.0634C51.0602 14.2652 49.9251 13.0789 49.9251 11.834C49.9251 11.2261 50.1448 10.7648 50.5988 10.3913C51.2725 9.83478 52.0781 9.73958 52.825 10.1204ZM60.3897 10.0618C60.9023 10.2888 61.3563 10.7941 61.5028 11.2921C61.6565 11.8266 61.6053 12.2367 61.305 12.8445C60.873 13.7233 59.8771 14.4995 58.3978 15.1C57.6509 15.4003 56.2668 15.8177 56.2009 15.7591C56.1423 15.7005 56.4133 14.0601 56.589 13.3864C57.1163 11.3946 57.8998 10.3181 59.1155 9.92265C59.3937 9.82745 60.0162 9.90068 60.3897 10.0618ZM52.2318 19.3034V21.8665H45.0553H37.8788V19.3034V16.7404H45.0553H52.2318V19.3034ZM58.3832 19.3034V21.8665H55.7469H53.1106V19.3034V16.7404H55.7469H58.3832V19.3034ZM73.615 19.3034V21.8665H66.4385H59.2619V19.3034V16.7404H66.4385H73.615V19.3034ZM70.8323 30.9836V39.222H55.7469H40.6615V30.9836V22.7452H55.7469H70.8323V30.9836ZM70.8323 41.602V43.1032H55.7469H40.6615V41.602V40.1007H55.7469H70.8323V41.602Z" fill="#333333"/>
<path d="M43.7153 27.9298C43.6055 28.0543 43.5908 28.3839 43.5908 31.1153C43.5908 34.0738 43.5981 34.1764 43.7373 34.3155C43.913 34.4912 44.0961 34.4986 44.2938 34.3594C44.4256 34.2569 44.433 34.1251 44.4696 31.9062L44.5062 29.5629L46.2271 31.8403C47.1718 33.0925 48.0212 34.1983 48.1091 34.2935C48.3068 34.4986 48.5778 34.5132 48.7389 34.3301C48.8487 34.2056 48.8634 33.8834 48.8634 31.1812C48.8634 28.2594 48.8561 28.1568 48.7169 28.0177C48.5412 27.842 48.3581 27.8346 48.1604 27.9738C48.0286 28.0763 48.0212 28.2081 47.9846 30.3537L47.948 32.6239L46.1905 30.3098C45.2238 29.0356 44.389 27.9518 44.3378 27.8932C44.1986 27.7541 43.8544 27.776 43.7153 27.9298Z" fill="#2E8B57"/>
<path d="M58.6909 28.1791C58.6396 28.2304 58.603 28.3475 58.603 28.4501C58.6104 28.5599 59.0937 29.9073 59.6868 31.4598C61.188 35.3703 61.0855 35.3483 62.3378 32.0603C62.7991 30.8447 63.1945 29.8488 63.2165 29.8488C63.2385 29.8488 63.6339 30.8447 64.0953 32.0676C65.0326 34.4989 65.0839 34.5941 65.5233 34.3817C65.721 34.2865 65.8308 34.0302 66.8194 31.4598C67.4126 29.9073 67.8959 28.5746 67.9032 28.4867C67.9106 28.1205 67.3394 27.9448 67.149 28.2523C67.0904 28.3475 66.6657 29.3874 66.2116 30.5591C65.7503 31.7381 65.3622 32.7047 65.3402 32.7047C65.3182 32.7047 64.9228 31.7234 64.4614 30.5298C64.0001 29.3361 63.5753 28.3183 63.5241 28.2597C63.3923 28.1352 63.1433 28.1352 62.9968 28.2743C62.9309 28.3329 62.4989 29.3581 62.0375 30.5444C61.5762 31.7308 61.188 32.7047 61.1661 32.7047C61.1441 32.7047 60.756 31.7381 60.2946 30.5591C59.8406 29.3874 59.4159 28.3475 59.3573 28.2523C59.2475 28.0693 58.8447 28.0253 58.6909 28.1791Z" fill="#2E8B57"/>
<path d="M51.9902 28.3694C51.8804 28.4939 51.8657 28.8088 51.8657 31.3645C51.8657 34.0447 51.873 34.2278 51.9975 34.345C52.122 34.4548 52.3637 34.4621 54.253 34.4475L56.362 34.4255L56.4792 34.2205C56.5744 34.0447 56.5744 34.0008 56.4792 33.8177L56.362 33.62L54.5533 33.598L52.7445 33.5834V32.7046V31.8258H54.5313C56.3035 31.8258 56.3254 31.8258 56.4353 31.6647C56.5891 31.4451 56.5817 31.218 56.4206 31.0716C56.3035 30.9617 56.0618 30.9471 54.5166 30.9471H52.7445V30.0317V29.1163H54.524C56.1643 29.1163 56.3181 29.1017 56.428 28.9845C56.5817 28.8161 56.5891 28.6111 56.4353 28.3987C56.3254 28.2376 56.3108 28.2376 54.2164 28.2376C52.2685 28.2376 52.1001 28.2449 51.9902 28.3694Z" fill="#2E8B57"/>
</svg>
